<svg xmlns="http://www.w3.org/2000/svg" id="svg8" viewBox="0 0 111.246 13.568" height="51.28" width="420.458">
    <g transform="translate(-38.549 -103.308)" id="layer1">
        <g id="text3701" style="line-height:1.25;-inkscape-font-specification:Pacifico" aria-label="Jérôme Parent-Lévesque" font-weight="400" font-size="10.583" font-family="Pacifico" letter-spacing="0" word-spacing="0" stroke-width=".265">
            <path id="name-j1" style="-inkscape-font-specification:Pacifico" d="M45.904 104.43q0 .318-.137.476-.127.16-.423.16-.022.221-.096.772-.106.74-.116.825-.942 7.017-3.927 7.017-.878 0-1.375-.497-.487-.498-.487-1.25 0-1.343 1.143-2.37 1.143-1.037 3.005-1.714.117-.752.18-1.344l.19-1.599q-.634-.063-1.184-.063-1.472 0-2.17.286-.699.285-.699.931 0 .318.212.688.064.106.064.222 0 .222-.233.402-.222.17-.487.17-.339 0-.519-.286-.296-.487-.296-1.132 0-2.54 4.445-2.54 1.291 0 2.307.254.603.148.603.592zm-4.561 8.118q.519 0 1.037-.784.519-.783.91-2.74-2.582 1.132-2.582 2.772 0 .36.17.561.169.19.465.19z"/>
            <path id="name-e1" style="-inkscape-font-specification:Pacifico" d="M50.405 110.188q.138 0 .212.127.085.127.085.349 0 .423-.202.656-.391.476-1.11.878-.71.403-1.525.403-1.111 0-1.725-.604-.614-.603-.614-1.65 0-.731.307-1.355.307-.635.847-1.006.55-.37 1.238-.37.614 0 .984.37.37.36.37.984 0 .73-.528 1.26-.519.518-1.768.825.265.487 1.006.487.476 0 1.08-.328.613-.339 1.057-.878.127-.148.286-.148zm-2.667-1.535q-.391 0-.667.455-.264.455-.264 1.1v.022q.624-.148.984-.445.36-.296.36-.688 0-.2-.116-.317-.106-.127-.297-.127zm.275-1.736q-.148 0-.264-.106-.106-.116-.106-.275 0-.074.053-.2l.984-2.202q.095-.212.244-.307.158-.106.349-.106.264 0 .465.19.212.191.212.477 0 .296-.233.593l-1.365 1.756q-.138.18-.339.18z"/>
            <path id="name-r1" style="-inkscape-font-specification:Pacifico" d="M50.591 112.6q-.402 0-.571-.423-.159-.423-.159-1.354 0-1.376.392-2.615.095-.306.306-.444.223-.148.614-.148.212 0 .297.053.084.053.084.2 0 .17-.158.763-.106.423-.17.74-.063.318-.106.784.35-.91.784-1.482.433-.571.846-.815.424-.243.773-.243.688 0 .688.688 0 .137-.096.666-.084.424-.084.53 0 .37.264.37.297 0 .762-.466.138-.137.286-.137.138 0 .212.127.084.116.084.317 0 .392-.211.614-.297.307-.699.53-.391.21-.836.21-.56 0-.857-.285-.286-.286-.286-.772 0-.16.032-.318.021-.212.021-.286 0-.169-.116-.169-.159 0-.424.36-.254.35-.508.931-.254.582-.412 1.228-.117.497-.276.677-.148.17-.476.17z"/>
            <path id="name-o1" style="-inkscape-font-specification:Pacifico" d="M60.054 109.299q.137 0 .211.137.074.138.074.35 0 .507-.307.603-.635.222-1.397.254-.2.889-.793 1.428-.593.53-1.344.53-.635 0-1.09-.307-.445-.307-.678-.815-.233-.508-.233-1.101 0-.804.307-1.429.307-.635.847-.984.54-.36 1.196-.36.804 0 1.291.561.497.55.582 1.365.497-.031 1.185-.211.085-.021.149-.021zm-3.472 2.18q.339 0 .582-.275.254-.276.339-.794-.328-.222-.508-.582-.17-.36-.17-.762 0-.17.032-.339h-.053q-.423 0-.709.413-.275.402-.275 1.143 0 .582.222.889.233.307.54.307zm1.524-4.551q-.243 0-.391-.117-.149-.127-.19-.455l-.244-1.873-.921 1.873q-.159.328-.339.445-.18.116-.402.116-.222 0-.36-.095-.127-.106-.127-.296 0-.18.117-.381l1.185-2.043q.19-.328.423-.487.244-.169.572-.169.317 0 .497.19.18.191.275.604l.466 1.905q.032.127.032.233 0 .264-.18.412-.17.138-.413.138z"/>
            <path id="name-m1" style="-inkscape-font-specification:Pacifico" d="M60.182 112.6q-.402 0-.571-.423-.159-.423-.159-1.354 0-1.376.392-2.615.095-.306.307-.444.222-.148.613-.148.212 0 .297.053.084.053.084.2 0 .17-.158.763-.106.423-.17.74-.063.308-.105.773.285-.825.677-1.397.402-.571.815-.846.423-.286.794-.286.37 0 .518.17.159.168.159.518 0 .338-.201 1.227-.085.381-.117.572.53-1.302 1.175-1.895.646-.592 1.207-.592.688 0 .688.688 0 .412-.233 1.492-.201.92-.201 1.217 0 .423.307.423.211 0 .497-.254.296-.264.783-.846.127-.148.286-.148.137 0 .212.127.084.127.084.349 0 .423-.2.656-.456.56-.985.92-.519.36-1.185.36-.54 0-.815-.306-.276-.318-.276-.91 0-.297.149-1.059.137-.667.137-.92 0-.17-.116-.17-.138 0-.392.36-.254.35-.508.931-.254.582-.413 1.228-.116.508-.275.677-.148.17-.487.17-.349 0-.529-.329-.17-.338-.17-.814 0-.403.107-1.165.084-.677.084-.889 0-.169-.116-.169-.159 0-.402.381-.244.381-.476.974-.223.592-.36 1.164-.117.497-.275.677-.149.17-.477.17z"/>
            <path id="name-e2" style="-inkscape-font-specification:Pacifico" d="M71.095 110.505q.138 0 .212.127.085.127.085.35 0 .38-.18.655-.297.456-.783.71-.477.254-1.143.254-1.016 0-1.577-.604-.561-.614-.561-1.65 0-.731.307-1.355.307-.635.846-1.006.55-.37 1.239-.37.613 0 .984.37.37.36.37.984 0 .73-.529 1.26-.519.518-1.778.825.254.487.857.487.434 0 .71-.2.285-.202.656-.678.127-.159.285-.159zm-1.735-1.852q-.392 0-.667.455-.265.455-.265 1.1v.022q.625-.148.985-.445.36-.296.36-.688 0-.2-.117-.317-.106-.127-.296-.127z"/>
            <path id="name-p1" style="-inkscape-font-specification:Pacifico" d="M82.66 106.24q0 .9-.465 1.651-.466.751-1.355 1.228-.889.476-2.116.56l-.456 2.551q-.264 1.471-1.439 1.471-.645 0-1.196-.38-.54-.382-.868-1.165-.328-.783-.328-1.926 0-2.149.688-3.64.699-1.504 1.863-2.244 1.175-.752 2.582-.752.995 0 1.683.35.698.349 1.048.952.36.593.36 1.344zm-3.746 2.35q2.17-.276 2.17-2.255 0-.698-.466-1.132-.455-.445-1.418-.445-1.09 0-1.905.688-.805.688-1.249 1.916-.434 1.217-.434 2.783 0 .656.127 1.164.138.508.339.794.211.275.402.275.264 0 .402-.73l.35-2q-.413-.064-.36-.053-.318-.053-.413-.19-.096-.149-.096-.371 0-.233.127-.37.138-.138.37-.138.107 0 .16.01.254.043.391.053.138-.825.392-2.211.063-.36.286-.508.232-.16.54-.16.349 0 .497.138.158.127.158.413 0 .17-.02.275z"/>
            <path id="name-a1" style="-inkscape-font-specification:Pacifico" d="M83.367 112.6q-.656 0-1.048-.476-.391-.476-.391-1.249 0-.846.391-1.598.392-.762 1.037-1.217.657-.465 1.387-.465.233 0 .307.095.084.085.137.317.223-.042.466-.042.519 0 .519.37 0 .223-.16 1.059-.243 1.217-.243 1.693 0 .159.074.254.085.095.212.095.201 0 .487-.254.286-.264.773-.846.127-.149.285-.149.138 0 .212.127.085.127.085.35 0 .423-.201.656-.434.54-.921.91-.487.37-.942.37-.35 0-.646-.232-.285-.244-.434-.657-.55.89-1.386.89zm.381-1.068q.233 0 .444-.276.212-.275.307-.73l.392-1.947q-.445.01-.826.339-.37.317-.592.846-.222.53-.222 1.122 0 .328.127.487.137.159.37.159z"/>
            <path id="name-r2" style="-inkscape-font-specification:Pacifico" d="M87.798 112.6q-.402 0-.571-.423-.159-.423-.159-1.354 0-1.376.392-2.615.095-.306.306-.444.223-.148.614-.148.212 0 .297.053.084.053.084.2 0 .17-.158.763-.106.423-.17.74-.063.318-.106.784.35-.91.784-1.482.433-.571.846-.815.424-.243.773-.243.688 0 .688.688 0 .137-.096.666-.084.424-.084.53 0 .37.264.37.297 0 .762-.466.138-.137.286-.137.138 0 .212.127.084.116.084.317 0 .392-.211.614-.297.307-.699.53-.391.21-.836.21-.56 0-.857-.285-.286-.286-.286-.772 0-.16.032-.318.021-.212.021-.286 0-.169-.116-.169-.159 0-.424.36-.254.35-.508.931-.254.582-.412 1.228-.117.497-.275.677-.149.17-.477.17z"/>
            <path id="name-e3" style="-inkscape-font-specification:Pacifico" d="M96.583 110.188q.138 0 .212.127.085.127.085.349 0 .423-.202.656-.391.476-1.11.878-.71.403-1.525.403-1.111 0-1.725-.604-.614-.603-.614-1.65 0-.731.307-1.355.307-.635.847-1.006.55-.37 1.238-.37.614 0 .984.37.37.36.37.984 0 .73-.528 1.26-.519.518-1.768.825.265.487 1.006.487.476 0 1.08-.328.613-.339 1.057-.878.127-.148.286-.148zm-2.667-1.535q-.391 0-.667.455-.264.455-.264 1.1v.022q.624-.148.984-.445.36-.296.36-.688 0-.2-.116-.317-.106-.127-.297-.127z"/>
            <path id="name-n1" style="-inkscape-font-specification:Pacifico" d="M96.77 112.6q-.403 0-.572-.423-.159-.423-.159-1.354 0-1.376.392-2.615.095-.306.307-.444.222-.148.613-.148.212 0 .297.053.084.053.084.2 0 .17-.158.763-.106.423-.17.74-.063.318-.106.784.35-.91.784-1.482.434-.571.846-.815.424-.243.773-.243.688 0 .688.688 0 .412-.233 1.492-.201.92-.201 1.217 0 .423.307.423.211 0 .497-.254.297-.264.783-.846.127-.148.286-.148.138 0 .212.127.084.127.084.349 0 .423-.2.656-.456.56-.985.92-.518.36-1.185.36-.54 0-.815-.306-.275-.318-.275-.91 0-.297.148-1.059.137-.667.137-.92 0-.17-.116-.17-.138 0-.392.36-.243.35-.508.931-.254.582-.412 1.228-.117.497-.275.677-.149.17-.477.17z"/>
            <path id="name-t1" style="-inkscape-font-specification:Pacifico" d="M103.014 108.621q-.02.53-.02.826 0 .762.073 1.196.085.423.265.613.19.18.518.18.17 0 .403-.105.232-.106.423-.276.116-.105.233-.105.127 0 .2.148.086.137.086.338t-.085.392q-.074.19-.233.317-.55.456-1.249.456-1.005 0-1.47-.837-.467-.846-.467-2.2 0-.467.032-.943h-.412q-.318 0-.434-.116-.106-.117-.106-.37 0-.593.476-.593h.603q.18-1.164.55-2.128.371-.963.89-1.534.529-.572 1.132-.572.445 0 .699.392.254.392.254.984 0 1.64-1.376 2.858h1.185q.17 0 .243.074.075.074.075.275 0 .73-1.196.73zm1.122-4.297q-.158 0-.36.403-.19.391-.37 1.1-.17.699-.286 1.556.625-.54.932-1.207.317-.677.317-1.227 0-.625-.233-.625z"/>
            <path id="name-dash" style="-inkscape-font-specification:Pacifico" d="M106.286 109.944q-.254.021-.413-.148-.148-.17-.148-.476 0-.286.138-.424.148-.137.423-.158l2.17-.212q.264-.021.402.138.148.148.148.444 0 .572-.55.624z"/>
            <path id="name-l1" style="-inkscape-font-specification:Pacifico" d="M117.571 110.188q.138 0 .212.127.085.127.085.349 0 .413-.201.656-.593.709-1.154.995-.55.286-1.333.286-.55 0-1.016-.138-.466-.138-1.133-.413-.603-.264-1.164-.434-.54.985-1.62.985-.592 0-.941-.265-.36-.275-.36-.699 0-.518.497-.857.498-.349 1.323-.349h.138l.19-3.08q.064-1.058.381-1.746.318-.688.879-1.175.487-.423 1.111-.635.624-.222 1.323-.222 1.143 0 1.757.593.614.592.614 1.545 0 .645-.233 1.048-.233.391-.646.391-.296 0-.465-.137-.17-.149-.17-.413 0-.095.042-.35.064-.296.064-.529 0-.444-.265-.698-.254-.265-.783-.265-.931 0-1.44.614-.507.603-.645 1.905l-.243 2.403q-.053.508-.138.878.678.116 1.694.37.592.149.91.212.317.064.56.064.615 0 1.048-.202.445-.211.837-.666.127-.148.285-.148z"/>
            <path id="name-e4" style="-inkscape-font-specification:Pacifico" d="M122.587 110.188q.137 0 .211.127.085.127.085.349 0 .423-.2.656-.392.476-1.112.878-.71.403-1.524.403-1.111 0-1.725-.604-.614-.603-.614-1.65 0-.731.307-1.355.307-.635.847-1.006.55-.37 1.238-.37.614 0 .984.37.37.36.37.984 0 .73-.529 1.26-.518.518-1.767.825.264.487 1.005.487.477 0 1.08-.328.614-.339 1.058-.878.127-.148.286-.148zm-2.667-1.535q-.392 0-.667.455-.265.455-.265 1.1v.022q.625-.148.985-.445.36-.296.36-.688 0-.2-.117-.317-.106-.127-.296-.127zm.275-1.736q-.148 0-.265-.106-.105-.116-.105-.275 0-.074.052-.2l.985-2.202q.095-.212.243-.307.159-.106.35-.106.264 0 .465.19.212.191.212.477 0 .296-.233.593l-1.365 1.756q-.138.18-.339.18z"/>
            <path id="name-v1" style="-inkscape-font-specification:Pacifico" d="M127.322 109.33q.032-.01.106-.01.159 0 .243.106.085.105.085.285 0 .328-.127.519-.127.18-.38.264-.488.16-1.038.16-.466 0-.878-.128-.307.498-.678 1.027-.423.603-.73.825-.307.223-.699.223-.433 0-.687-.34-.244-.338-.307-1.068-.127-1.482-.127-2.593v-.37q.01-.35.19-.487.18-.138.54-.138.275 0 .402.127.138.117.138.402 0 1.217.148 3.165.635-.942.952-1.503-.158-.307-.158-.73 0-.36.158-.699.16-.338.434-.55.275-.212.625-.212.307 0 .497.222.19.212.19.625 0 .476-.253 1.09.402-.021 1.068-.159z"/>
            <path id="name-e5" style="-inkscape-font-specification:Pacifico" d="M131.558 110.188q.137 0 .212.127.084.127.084.349 0 .423-.2.656-.392.476-1.112.878-.71.403-1.524.403-1.111 0-1.725-.604-.614-.603-.614-1.65 0-.731.307-1.355.307-.635.847-1.006.55-.37 1.238-.37.614 0 .984.37.37.36.37.984 0 .73-.529 1.26-.518.518-1.767.825.264.487 1.005.487.477 0 1.08-.328.614-.339 1.058-.878.127-.148.286-.148zm-2.667-1.535q-.392 0-.667.455-.264.455-.264 1.1v.022q.624-.148.984-.445.36-.296.36-.688 0-.2-.117-.317-.106-.127-.296-.127z"/>
            <path id="name-s1" style="-inkscape-font-specification:Pacifico" d="M132.961 112.833q-.55 0-.847-.254-.285-.254-.285-.571 0-.275.2-.476.202-.201.593-.201.138 0 .318.031l.286.032q-.011-.275-.127-.518-.106-.244-.276-.466-.169-.233-.317-.402-.328.624-.656 1.037-.318.413-.699.783-.19.19-.402.19-.17 0-.275-.116-.106-.127-.106-.307 0-.211.148-.391l.138-.17q.582-.72.878-1.185.18-.307.424-.815.243-.519.476-1.069.2-.466.836-.466.296 0 .413.053.116.053.116.17 0 .063-.042.2-.043.138-.117.276-.19.38-.19.646 0 .158.106.349.116.19.349.476.339.445.508.762.18.307.18.677 0 .106-.021.297.518-.201 1.217-1.07.127-.147.285-.147.138 0 .212.127.085.127.085.349 0 .402-.201.656-.53.656-1.016.9-.476.232-1.186.254-.423.36-1.005.36z"/>
            <path id="name-q1" style="-inkscape-font-specification:Pacifico" d="M141.457 110.516q.243 0 .243.328 0 .412-.19.645-.18.233-.498.233l-.392-.01q-.105-.011-.306-.011.042.603.042 1.206 0 1.599-.423 2.784-.413 1.185-1.302 1.185-.603 0-.921-.698-.307-.688-.307-1.683 0-1.238.275-2.445-.36.55-.942.55t-.973-.486q-.381-.487-.381-1.26 0-.836.391-1.587.402-.752 1.059-1.207.666-.465 1.418-.465.254 0 .391.169.096-.339.286-.455.19-.117.53-.117.36 0 .476.106.127.106.116.307 0 .127-.138.593l-.169.603q-.17.593-.37 1.312-.19.72-.307 1.313-.339 1.693-.339 2.995 0 .487.074.825.085.35.212.35.106 0 .222-.36.127-.36.212-.963.084-.604.084-1.28 0-.805-.074-1.43-.01-.053-.01-.169 0-.35.17-.582.179-.233.496-.233.043 0 .805-.032.317-.032.54-.032zm-4.297 1.016q.243 0 .465-.297.223-.307.318-.73l.455-1.926q-.466.01-.857.328-.381.317-.614.847-.222.518-.222 1.1 0 .328.116.508.127.17.339.17z"/>
            <path id="name-u1" style="-inkscape-font-specification:Pacifico" d="M141.89 112.6q-.476 0-.783-.433-.296-.445-.296-1.101 0-.794.106-1.45.106-.667.35-1.408.105-.317.295-.455.19-.137.604-.137.232 0 .317.074.095.074.095.222 0 .085-.116.572-.106.391-.17.709-.211 1.111-.211 1.481 0 .223.053.318.053.085.17.085.158 0 .39-.318.244-.317.509-.963.275-.646.529-1.587.085-.318.254-.456.18-.137.53-.137.242 0 .338.063.095.053.095.212 0 .265-.265 1.45-.296 1.355-.296 1.672 0 .201.085.318.084.105.222.105.212 0 .497-.254.297-.264.784-.846.127-.148.285-.148.138 0 .212.127.085.127.085.349 0 .423-.201.656-.455.56-.985.92-.518.36-1.185.36-.508 0-.751-.391-.233-.392-.233-1.1-.18.719-.54 1.11-.36.382-.773.382z"/>
            <path id="name-e6" style="-inkscape-font-specification:Pacifico" d="M149.499 110.505q.137 0 .211.127.085.127.085.35 0 .38-.18.655-.296.456-.783.71-.476.254-1.143.254-1.016 0-1.577-.604-.56-.614-.56-1.65 0-.731.306-1.355.307-.635.847-1.006.55-.37 1.238-.37.614 0 .984.37.37.36.37.984 0 .73-.528 1.26-.519.518-1.778.825.254.487.857.487.434 0 .709-.2.286-.202.656-.678.127-.159.286-.159zm-1.736-1.852q-.392 0-.667.455-.264.455-.264 1.1v.022q.624-.148.984-.445.36-.296.36-.688 0-.2-.117-.317-.105-.127-.296-.127z"/>
        </g>
    </g>
</svg>